<svg xmlns="http://www.w3.org/2000/svg" xmlns:xlink="http://www.w3.org/1999/xlink" version="1.1" id="Layer_1" viewBox="0 0 32 32" enable-background="new 0 0 32 32" xml:space="preserve">
<path fill='white' d="M16,2.5C9.648,2.5,4.5,7.63,4.5,13.958v10.987c0.238,0.346,0.009-3.028,0.411-2.647s0.917,3.623,1.715,3.896s0.202-2.843,1.243-2.571s1.607,3.289,2.806,3.446s0.808-2.778,2.268-2.674s1.619,3.002,3.057,3.002c1.438,0,1.597-2.899,3.057-3.004s1.07,2.833,2.269,2.676s1.767-3.176,2.808-3.447s0.44,2.845,1.239,2.572s1.315-3.515,1.718-3.896s0.172,2.993,0.41,2.647V13.958C27.5,7.63,22.352,2.5,16,2.5zM12.5,14.5c-1.381,0-2.5-1.119-2.5-2.5s1.119-2.5,2.5-2.5S15,10.619,15,12S13.881,14.5,12.5,14.5zM19.5,14.5c-1.381,0-2.5-1.119-2.5-2.5s1.119-2.5,2.5-2.5S22,10.619,22,12S20.881,14.5,19.5,14.5z"/>
</svg>