<?xml version="1.0" encoding="utf-8"?>
<!-- Generator: Adobe Illustrator 16.0.0, SVG Export Plug-In . SVG Version: 6.00 Build 0)  -->
<!DOCTYPE svg PUBLIC "-//W3C//DTD SVG 1.1//EN" "http://www.w3.org/Graphics/SVG/1.1/DTD/svg11.dtd">
<svg version="1.1" id="Layer_1" xmlns="http://www.w3.org/2000/svg" xmlns:xlink="http://www.w3.org/1999/xlink" viewBox="14.875 7 70.25 70.25" enable-background="new 14.875 7 70.25 70.25"
	 xml:space="preserve">
<g fill='#cecece'>
<path d="M48.509,76.76c0.144,0.01,0.287,0.026,0.432,0.032l1.877,0.015c14.772-0.342,26.336-14.603,26.336-32.149
	c-0.002-12.651-6.233-23.493-15.241-30.749h-9.751c-0.25-1.001-1.148-1.744-2.226-1.744c-1.078,0.001-1.974,0.745-2.223,1.744h-0.02
	h-9.741c-8.989,7.255-15.23,18.098-15.23,30.75c0,16.228,10.176,29.641,23.393,31.837L48.509,76.76z M74.725,44.721
	c0,16.179-11.099,29.296-24.789,29.296c-13.692,0-24.79-13.117-24.79-29.296c0-7.906,2.675-15.037,6.996-20.868
	c0,0.005-0.002,0.009-0.003,0.015c1.603,1.458,4.101,1.335,5.561-0.265c1.457-1.605,1.336-4.087-0.266-5.543h-0.002
	c0.517-0.463,1.044-0.915,1.584-1.35h21.839c0.561,0.452,1.105,0.922,1.643,1.404c-1.58,1.458-1.693,3.922-0.245,5.52
	c1.451,1.591,3.925,1.717,5.528,0.289C72.072,29.741,74.725,36.846,74.725,44.721z"/>
<path d="M82.124,25.107c-1.937-4.042-6.707-5.785-10.746-3.851l1.685,2.373c2.631-1.259,5.244,0.073,6.502,2.702
	s0.679,5.486-1.951,6.745L78.4,35.88C82.441,33.946,84.057,29.149,82.124,25.107z"/>
<path d="M20.311,26.331c1.258-2.629,3.871-3.961,6.501-2.702l1.686-2.373c-4.04-1.934-8.812-0.191-10.746,3.851
	c-1.933,4.042-0.319,8.839,3.723,10.772l0.787-2.804C19.633,31.817,19.054,28.96,20.311,26.331z"/>
</g>
</svg>
